{"title":"Carly Rae Jepsen - I Really Like You (2015.Pop)","uid":11755151,"size":81064940,"categoryP":"video","categoryS":"music_videos","magnet":"?xt=urn:btih:5ec8120414dda0428684a081859f5a42b84116b0&amp;dn=Carly+Rae+Jepsen+-+I+Really+Like+You+%282015.Pop%29&amp;tr=udp%3A%2F%2Ftracker.openbittorrent.com%3A80&amp;tr=udp%3A%2F%2Fopen.demonii.com%3A1337&amp;tr=udp%3A%2F%2Ftracker.coppersurfer.tk%3A6969&amp;tr=udp%3A%2F%2Fexodus.desync.com%3A6969","seeders":33,"leechers":13,"uploader":"MeRaDil","files":1,"time":1426351919,"description":"CARLY RAE JEPSEN - I REALLY LIKE YOU\n\n &lt;a href=&quot;\nhttp://gifyu.com/images/carly.png&quot; rel=&quot;nofollow&quot; target=&quot;_NEW&quot;&gt;\nhttp://gifyu.com/images/carly.png&lt;/a&gt;\n &lt;a href=&quot;\nhttp://gifyu.com/images/CarlyRae.png&quot; rel=&quot;nofollow&quot; target=&quot;_NEW&quot;&gt;\nhttp://gifyu.com/images/CarlyRae.png&lt;/a&gt;\n\nGeneral\nCarly Rae Jepsen - I Really Like You\nFormat                      : MPEG-4\nFormat profile              : Base Media\nCodec ID                    : isom\nFile size                   : 77.3 MiB\nDuration                    : 3mn 28s\nOverall bit rate            : 3 107 Kbps\nMusicVid name               : I Really Like You\nPerformer                   : Carly Rae Jepsen\nGenre                       : Pop\nContentType                 : Music Video\nRecorded date               : 2015\nCopyright                   : Carly Rae Jepsen\nCover                       : Yes\nRating                      : ***\nMake                        : MeRaDil\noday                        : Canada  06-03-2015\nArtist url                  : http://www.carlyraemusic.com\nRelease                     : Canada . march 6 . 2015\nPart_ID                     : I Really Like You\n\nVideo\nID                          : 1\nFormat                      : AVC\nFormat/Info                 : Advanced Video Codec\nFormat profile              : &lt;a class=&quot;__cf_email__&quot; href=&quot;/cdn-cgi/l/email-protection&quot; data-cfemail=&quot;b0f8d9d7d8f0fc849e80&quot;&gt;[email&amp;#160;protected]&lt;/a&gt;&lt;script cf-hash='f9e31' type=&quot;text/javascript&quot;&gt;\n/* &lt;![CDATA[ */!function(){try{var t=&quot;currentScript&quot;in document?document.currentScript:function(){for(var t=document.getElementsByTagName(&quot;script&quot;),e=t.length;e--;)if(t[e].getAttribute(&quot;cf-hash&quot;))return t[e]}();if(t&amp;&amp;t.previousSibling){var e,r,n,i,c=t.previousSibling,a=c.getAttribute(&quot;data-cfemail&quot;);if(a){for(e=&quot;&quot;,r=parseInt(a.substr(0,2),16),n=2;a.length-n;n+=2)i=parseInt(a.substr(n,2),16)^r,e+=String.fromCharCode(i);e=document.createTextNode(e),c.parentNode.replaceChild(e,c)}}}catch(u){}}();/* ]]&gt; */&lt;/script&gt;\nFormat settings, CABAC      : Yes\nFormat settings, ReFrames   : 2 frames\nCodec ID                    : avc1\nCodec ID/Info               : Advanced Video Coding\nDuration                    : 3mn 28s\nBit rate                    : 2 844 Kbps\nWidth                       : 1 920 pixels\nHeight                      : 1 080 pixels\nDisplay aspect ratio        : 16:9\nFrame rate mode             : Variable\nFrame rate                  : 23.976 fps\nMinimum frame rate          : 23.974 fps\nMaximum frame rate          : 23.981 fps\nColor space                 : YUV\nChroma subsampling          : 4:2:0\nBit depth                   : 8 bits\nScan type                   : Progressive\nBits/(Pixel*Frame)          : 0.057\nStream size                 : 70.7 MiB (92%)\n\nAudio\nID                          : 2\nFormat                      : AAC\nFormat/Info                 : Advanced Audio Codec\nFormat profile              : LC\nCodec ID                    : 40\nDuration                    : 3mn 28s\nBit rate mode               : Constant\nBit rate                    : 256 Kbps\nChannel(s)                  : 2 channels\nChannel positions           : Front: L R\nSampling rate               : 44.1 KHz\nCompression mode            : Lossy\nStream size                 : 6.37 MiB (8%)\n &lt;a href=&quot;\nhttps://thepiratebay.se/user/MeRaDil&quot; rel=&quot;nofollow&quot; target=&quot;_NEW&quot;&gt;\nhttps://thepiratebay.se/user/MeRaDil&lt;/a&gt;\n\nCarly Rae Jepsen * Pop * Promo\n\n:)","torrent":{"xt":"urn:btih:5ec8120414dda0428684a081859f5a42b84116b0","amp;dn":"Carly+Rae+Jepsen+-+I+Really+Like+You+%282015.Pop%29","amp;tr":["udp%3A%2F%2Ftracker.openbittorrent.com%3A80","udp%3A%2F%2Fopen.demonii.com%3A1337","udp%3A%2F%2Ftracker.coppersurfer.tk%3A6969","udp%3A%2F%2Fexodus.desync.com%3A6969"],"infoHash":"5ec8120414dda0428684a081859f5a42b84116b0","infoHashBuffer":{"type":"Buffer","data":[94,200,18,4,20,221,160,66,134,132,160,129,133,159,90,66,184,65,22,176]},"announce":[],"urlList":[]}}